C:\Users\jackb\Documents\projects\Masters\adult_control\InputData/emg/ng10220_crop.c3d.mot
nRows=25
nColumns=13

name C:\Users\jackb\Documents\projects\Masters\adult_control\InputData/emg/ng10220_crop.c3d.mot
datacolumns 13
datarows 25
range 4.5525000000 4.5645000000
endheader
time	soleus_r	rect_fem_r	lat_gas_r	med_gas_r	vas_lat_r	vas_med_r	bifemlh_r	semimem_r	tib_ant_r	per_brev_r	ext_dig_r	ext_hal_r
        4.5525000000	        0.0374845892	        0.0700294072	        0.0346387771	        0.0374161876	        0.0419636826	        0.1084482797	        0.1421650652	        0.1630006400	        0.0568055271	        0.0662890882	        0.0539812309	        0.0740742298	
        4.5530000000	        0.0375132724	        0.0693944357	        0.0347037570	        0.0379305849	        0.0419149143	        0.1089995595	        0.1423804366	        0.1628977338	        0.0565816124	        0.0663726639	        0.0528887675	        0.0734953348	
        4.5535000000	        0.0375425685	        0.0688018671	        0.0347707048	        0.0384650294	        0.0419038761	        0.1096139362	        0.1425531981	        0.1627536628	        0.0563763167	        0.0664617633	        0.0518297213	        0.0729387426	
        4.5540000000	        0.0375724722	        0.0682518626	        0.0348395164	        0.0390191060	        0.0419302327	        0.1102902786	        0.1426832911	        0.1625689662	        0.0561889535	        0.0665565221	        0.0508047510	        0.0724043198	
        4.5545000000	        0.0376029849	        0.0677444444	        0.0349100769	        0.0395924068	        0.0419935571	        0.1110273431	        0.1427706873	        0.1623442123	        0.0560188475	        0.0666570601	        0.0498144950	        0.0718919109	
        4.5550000000	        0.0376341163	        0.0672795167	        0.0349822642	        0.0401845291	        0.0420933251	        0.1118237951	        0.1428153962	        0.1620800674	        0.0558653377	        0.0667634795	        0.0488595678	        0.0714013300	
        4.5555000000	        0.0376658836	        0.0668568899	        0.0350559545	        0.0407950568	        0.0422289087	        0.1126782314	        0.1428174889	        0.1617773754	        0.0557277799	        0.0668758641	        0.0479405566	        0.0709323532	
        4.5560000000	        0.0376983115	        0.0664762968	        0.0351310278	        0.0414235320	        0.0423995757	        0.1135892015	        0.1427771444	        0.1614372258	        0.0556055481	        0.0669942801	        0.0470580171	        0.0704847166	
        4.5565000000	        0.0377314299	        0.0661373973	        0.0352073773	        0.0420694437	        0.0426045025	        0.1145552187	        0.1426946925	        0.1610609971	        0.0554980334	        0.0671187782	        0.0462124724	        0.0700581208	
        4.5570000000	        0.0377652715	        0.0658397774	        0.0352849213	        0.0427322548	        0.0428427984	        0.1155747558	        0.1425706108	        0.1606503872	        0.0554046410	        0.0672493961	        0.0454044137	        0.0696522386	
        4.5575000000	        0.0377998661	        0.0655829477	        0.0353636177	        0.0434114541	        0.0431135374	        0.1166462167	        0.1424054844	        0.1602074401	        0.0553247832	        0.0673861595	        0.0446343031	        0.0692667200	
        4.5580000000	        0.0378352355	        0.0653663449	        0.0354434761	        0.0441066071	        0.0434157850	        0.1177678933	        0.1421999824	        0.1597345631	        0.0552578708	        0.0675290790	        0.0439025753	        0.0689011928	
        4.5585000000	        0.0378713908	        0.0651893383	        0.0355245624	        0.0448173921	        0.0437486089	        0.1189379257	        0.1419548595	        0.1592345009	        0.0552033045	        0.0676781437	        0.0432096358	        0.0685552613	
        4.5590000000	        0.0379083314	        0.0650512365	        0.0356069980	        0.0455436242	        0.0441110722	        0.1201542948	        0.1416709447	        0.1587102368	        0.0551604705	        0.0678333144	        0.0425558566	        0.0682285070	
        4.5595000000	        0.0379460463	        0.0649512884	        0.0356909547	        0.0462852616	        0.0445022186	        0.1214148538	        0.1413491055	        0.1581648357	        0.0551287444	        0.0679945197	        0.0419415703	        0.0679204908	
        4.5600000000	        0.0379845164	        0.0648886761	        0.0357766471	        0.0470423826	        0.0449210620	        0.1227173673	        0.1409902184	        0.1576013503	        0.0551075004	        0.0681616555	        0.0413670635	        0.0676307558	
        4.5605000000	        0.0380237206	        0.0648625101	        0.0358643207	        0.0478151228	        0.0453665886	        0.1240595258	        0.1405951735	        0.1570229074	        0.0550961242	        0.0683345884	        0.0408325706	        0.0673588290	
        4.5610000000	        0.0380636488	        0.0648718438	        0.0359542347	        0.0486035908	        0.0458377711	        0.1254389364	        0.1401648999	        0.1564329200	        0.0550940245	        0.0685131589	        0.0403382667	        0.0671042219	
        4.5615000000	        0.0381043186	        0.0649157099	        0.0360466427	        0.0494078179	        0.0463335816	        0.1268531131	        0.1397003736	        0.1558352962	        0.0551006428	        0.0686971870	        0.0398842606	        0.0668664286	
        4.5620000000	        0.0381457923	        0.0649931639	        0.0361417763	        0.0502277705	        0.0468529922	        0.1282994874	        0.1392026016	        0.1552345927	        0.0551154593	        0.0688864787	        0.0394705881	        0.0666449246	
        4.5625000000	        0.0381881830	        0.0651033188	        0.0362398369	        0.0510633899	        0.0473949636	        0.1297754252	        0.1386726133	        0.1546360672	        0.0551379944	        0.0690808320	        0.0390972073	        0.0664391666	
        4.5630000000	        0.0382316487	        0.0652453625	        0.0363409961	        0.0519146212	        0.0479584377	        0.1312782306	        0.1381114705	        0.1540455520	        0.0551678039	        0.0692800409	        0.0387639979	        0.0662485953	
        4.5635000000	        0.0382763755	        0.0654185649	        0.0364454005	        0.0527814276	        0.0485423432	        0.1328051362	        0.1375202666	        0.1534691390	        0.0552044693	        0.0694838951	        0.0384707615	        0.0660726372	
        4.5640000000	        0.0383225597	        0.0656222791	        0.0365531715	        0.0536637992	        0.0491456134	        0.1343532957	        0.1369001125	        0.1529128045	        0.0552475856	        0.0696921780	        0.0382172209	        0.0659107078	
        4.5645000000	        0.0383703985	        0.0658559393	        0.0366644099	        0.0545617509	        0.0497672075	        0.1359197923	        0.1362521441	        0.1523821550	        0.0552967487	        0.0699046613	        0.0380030169	        0.0657622152	
